<svg xmlns="http://www.w3.org/2000/svg" xmlns:xlink="http://www.w3.org/1999/xlink" width="139" zoomAndPan="magnify" viewBox="0 0 104.25 30.000001" height="40" preserveAspectRatio="xMidYMid meet" version="1.0"><defs><g/><clipPath id="2a65e1ee6e"><path d="M 15 6 L 23.859375 6 L 23.859375 23 L 15 23 Z M 15 6 " clip-rule="nonzero"/></clipPath><clipPath id="f65776d5a0"><path d="M 22 3 L 23.859375 3 L 23.859375 6 L 22 6 Z M 22 3 " clip-rule="nonzero"/></clipPath><clipPath id="6dcfc89f62"><path d="M 22 8 L 23.859375 8 L 23.859375 10 L 22 10 Z M 22 8 " clip-rule="nonzero"/></clipPath><clipPath id="04d158906e"><path d="M 21 2.171875 L 22 2.171875 L 22 4 L 21 4 Z M 21 2.171875 " clip-rule="nonzero"/></clipPath><clipPath id="50905b52ad"><path d="M 22 6 L 23.859375 6 L 23.859375 8 L 22 8 Z M 22 6 " clip-rule="nonzero"/></clipPath><clipPath id="701ca906b0"><path d="M 5.980469 23 L 8 23 L 8 26 L 5.980469 26 Z M 5.980469 23 " clip-rule="nonzero"/></clipPath><clipPath id="89908605c7"><path d="M 8 25 L 10 25 L 10 26.847656 L 8 26.847656 Z M 8 25 " clip-rule="nonzero"/></clipPath></defs><g clip-path="url(#2a65e1ee6e)"><path fill="#766761" d="M 18.773438 7.027344 L 18.070312 7.027344 L 18.070312 6.378906 C 17.820312 6.246094 17.535156 6.171875 17.234375 6.171875 C 16.226562 6.171875 15.402344 7.007812 15.402344 8.03125 L 15.402344 20.988281 C 15.402344 22.007812 16.226562 22.84375 17.234375 22.84375 C 18.199219 22.84375 18.996094 22.078125 19.0625 21.117188 C 19.277344 21.191406 19.511719 21.234375 19.753906 21.234375 C 20.917969 21.234375 21.859375 20.277344 21.859375 19.097656 C 21.859375 18.878906 21.832031 18.675781 21.773438 18.476562 C 22.902344 18.058594 23.710938 16.953125 23.710938 15.660156 C 23.710938 14.914062 23.441406 14.230469 23 13.707031 C 23.222656 13.355469 23.351562 12.933594 23.351562 12.484375 C 23.351562 11.457031 22.679688 10.589844 21.757812 10.300781 L 20.023438 10.300781 L 20.023438 8.046875 L 20.722656 8.046875 C 19.992188 6.984375 19.078125 7.039062 18.773438 7.027344 Z M 18.648438 11.296875 L 17.441406 11.296875 L 17.441406 12.527344 L 18.648438 12.527344 Z M 21.003906 11.085938 L 19.792969 11.085938 L 19.792969 12.3125 L 21.003906 12.3125 Z M 19.132812 9.832031 L 18.363281 9.832031 L 18.363281 10.609375 L 19.132812 10.609375 Z M 17.972656 8.785156 L 17.203125 8.785156 L 17.203125 9.5625 L 17.972656 9.5625 Z M 19.539062 7.425781 L 18.773438 7.425781 L 18.773438 8.207031 L 19.539062 8.207031 Z M 19.539062 7.425781 " fill-opacity="1" fill-rule="evenodd"/></g><g clip-path="url(#f65776d5a0)"><path fill="#766761" d="M 24.125 3.832031 L 22.261719 3.832031 L 22.261719 5.722656 L 24.125 5.722656 Z M 24.125 3.832031 " fill-opacity="1" fill-rule="evenodd"/></g><path fill="#766761" d="M 21.527344 5.34375 L 20.351562 5.34375 L 20.351562 6.539062 L 21.527344 6.539062 Z M 21.527344 5.34375 " fill-opacity="1" fill-rule="evenodd"/><g clip-path="url(#6dcfc89f62)"><path fill="#766761" d="M 23.753906 8.261719 L 22.574219 8.261719 L 22.574219 9.457031 L 23.753906 9.457031 Z M 23.753906 8.261719 " fill-opacity="1" fill-rule="evenodd"/></g><g clip-path="url(#04d158906e)"><path fill="#766761" d="M 21.855469 2.179688 L 21.023438 2.179688 L 21.023438 3.027344 L 21.855469 3.027344 Z M 21.855469 2.179688 " fill-opacity="1" fill-rule="evenodd"/></g><path fill="#766761" d="M 20.148438 3.269531 L 19.179688 3.269531 L 19.179688 4.25 L 20.148438 4.25 Z M 20.148438 3.269531 " fill-opacity="1" fill-rule="evenodd"/><g clip-path="url(#50905b52ad)"><path fill="#766761" d="M 23.066406 6.535156 L 22.234375 6.535156 L 22.234375 7.378906 L 23.066406 7.378906 Z M 23.066406 6.535156 " fill-opacity="1" fill-rule="evenodd"/></g><path fill="#766761" d="M 19.160156 5.621094 L 18.527344 5.621094 L 18.527344 6.265625 L 19.160156 6.265625 Z M 19.160156 5.621094 " fill-opacity="1" fill-rule="evenodd"/><path fill="#766761" d="M 21.929688 8.40625 L 20.34375 8.40625 L 20.34375 10.015625 L 21.929688 10.015625 Z M 21.929688 8.40625 " fill-opacity="1" fill-rule="evenodd"/><path fill="#e17f26" d="M 11.335938 21.992188 L 12.042969 21.992188 L 12.042969 22.640625 C 12.292969 22.769531 12.578125 22.84375 12.875 22.84375 C 13.882812 22.84375 14.707031 22.007812 14.707031 20.988281 L 14.707031 8.03125 C 14.707031 7.011719 13.882812 6.171875 12.875 6.171875 C 11.914062 6.171875 11.117188 6.941406 11.050781 7.898438 C 10.832031 7.824219 10.597656 7.78125 10.359375 7.78125 C 9.195312 7.78125 8.246094 8.742188 8.246094 9.921875 C 8.246094 10.136719 8.28125 10.34375 8.339844 10.539062 C 7.207031 10.960938 6.398438 12.066406 6.398438 13.359375 C 6.398438 14.105469 6.667969 14.785156 7.109375 15.3125 C 6.886719 15.664062 6.761719 16.082031 6.761719 16.535156 C 6.761719 17.5625 7.429688 18.429688 8.351562 18.714844 L 10.089844 18.714844 L 10.089844 20.972656 L 9.386719 20.972656 C 10.117188 22.035156 11.03125 21.980469 11.335938 21.992188 Z M 11.460938 17.71875 L 12.671875 17.71875 L 12.671875 16.492188 L 11.460938 16.492188 Z M 9.105469 17.933594 L 10.316406 17.933594 L 10.316406 16.707031 L 9.105469 16.707031 Z M 10.976562 19.1875 L 11.746094 19.1875 L 11.746094 18.40625 L 10.976562 18.40625 Z M 12.140625 20.230469 L 12.910156 20.230469 L 12.910156 19.453125 L 12.140625 19.453125 Z M 10.570312 21.59375 L 11.339844 21.59375 L 11.339844 20.8125 L 10.570312 20.8125 Z M 10.570312 21.59375 " fill-opacity="1" fill-rule="evenodd"/><g clip-path="url(#701ca906b0)"><path fill="#e17f26" d="M 7.847656 23.292969 L 5.980469 23.292969 L 5.980469 25.183594 L 7.847656 25.183594 Z M 7.847656 23.292969 " fill-opacity="1" fill-rule="evenodd"/></g><path fill="#e17f26" d="M 9.761719 22.480469 L 8.582031 22.480469 L 8.582031 23.671875 L 9.761719 23.671875 Z M 9.761719 22.480469 " fill-opacity="1" fill-rule="evenodd"/><path fill="#e17f26" d="M 7.535156 19.5625 L 6.359375 19.5625 L 6.359375 20.753906 L 7.535156 20.753906 Z M 7.535156 19.5625 " fill-opacity="1" fill-rule="evenodd"/><g clip-path="url(#89908605c7)"><path fill="#e17f26" d="M 9.085938 25.992188 L 8.253906 25.992188 L 8.253906 26.835938 L 9.085938 26.835938 Z M 9.085938 25.992188 " fill-opacity="1" fill-rule="evenodd"/></g><path fill="#e17f26" d="M 10.929688 24.769531 L 9.964844 24.769531 L 9.964844 25.746094 L 10.929688 25.746094 Z M 10.929688 24.769531 " fill-opacity="1" fill-rule="evenodd"/><path fill="#e17f26" d="M 7.875 21.640625 L 7.042969 21.640625 L 7.042969 22.484375 L 7.875 22.484375 Z M 7.875 21.640625 " fill-opacity="1" fill-rule="evenodd"/><path fill="#e17f26" d="M 11.585938 22.753906 L 10.949219 22.753906 L 10.949219 23.394531 L 11.585938 23.394531 Z M 11.585938 22.753906 " fill-opacity="1" fill-rule="evenodd"/><path fill="#e17f26" d="M 9.765625 19.003906 L 8.183594 19.003906 L 8.183594 20.613281 L 9.765625 20.613281 Z M 9.765625 19.003906 " fill-opacity="1" fill-rule="evenodd"/><g fill="#766761" fill-opacity="1"><g transform="translate(25.449908, 13.746772)"><g><path d="M 3.183594 -3.964844 L 0.117188 -3.964844 L 0.117188 -3.164062 L 1.222656 -3.164062 L 1.222656 0 L 2.078125 0 L 2.078125 -3.164062 L 3.183594 -3.164062 Z M 3.183594 -3.964844 "/></g></g></g><g fill="#766761" fill-opacity="1"><g transform="translate(29.221061, 13.746772)"><g><path d="M 2.632812 0 L 3.589844 0 L 2.710938 -1.496094 C 3.152344 -1.710938 3.4375 -2.128906 3.4375 -2.648438 C 3.4375 -3.414062 2.84375 -3.964844 2.050781 -3.964844 L 0.453125 -3.964844 L 0.453125 0 L 1.308594 0 L 1.308594 -1.347656 L 1.855469 -1.347656 Z M 1.308594 -3.171875 L 1.992188 -3.171875 C 2.355469 -3.171875 2.566406 -2.949219 2.566406 -2.65625 C 2.566406 -2.355469 2.355469 -2.140625 1.992188 -2.140625 L 1.308594 -2.140625 Z M 1.308594 -3.171875 "/></g></g></g><g fill="#766761" fill-opacity="1"><g transform="translate(33.428197, 13.746772)"><g><path d="M 3.082031 0 L 4.015625 0 L 2.414062 -3.964844 L 1.601562 -3.964844 L 0.046875 0 L 0.957031 0 L 1.230469 -0.746094 L 2.804688 -0.746094 Z M 2.015625 -2.917969 L 2.535156 -1.496094 L 1.496094 -1.496094 Z M 2.015625 -2.917969 "/></g></g></g><g fill="#766761" fill-opacity="1"><g transform="translate(37.95807, 13.746772)"><g><path d="M 1.949219 -3.964844 L 0.453125 -3.964844 L 0.453125 0 L 1.949219 0 C 3.113281 0 3.957031 -0.832031 3.957031 -1.980469 C 3.957031 -3.132812 3.113281 -3.964844 1.949219 -3.964844 Z M 1.929688 -0.792969 L 1.308594 -0.792969 L 1.308594 -3.164062 L 1.929688 -3.164062 C 2.609375 -3.164062 3.082031 -2.683594 3.082031 -1.980469 C 3.082031 -1.292969 2.609375 -0.792969 1.929688 -0.792969 Z M 1.929688 -0.792969 "/></g></g></g><g fill="#766761" fill-opacity="1"><g transform="translate(42.618174, 13.746772)"><g><path d="M 1.308594 -0.792969 L 1.308594 -1.609375 L 2.683594 -1.609375 L 2.683594 -2.382812 L 1.308594 -2.382812 L 1.308594 -3.171875 L 2.832031 -3.171875 L 2.832031 -3.964844 L 0.453125 -3.964844 L 0.453125 0 L 2.894531 0 L 2.894531 -0.792969 Z M 1.308594 -0.792969 "/></g></g></g><g fill="#766761" fill-opacity="1"><g transform="translate(46.247774, 13.746772)"><g><path d="M 2.269531 0.0898438 C 3.25 0.0898438 4.019531 -0.566406 4.203125 -1.546875 L 3.335938 -1.546875 C 3.195312 -1.046875 2.792969 -0.730469 2.269531 -0.730469 C 1.597656 -0.730469 1.09375 -1.261719 1.09375 -1.976562 C 1.09375 -2.691406 1.597656 -3.226562 2.269531 -3.226562 C 2.769531 -3.226562 3.164062 -2.933594 3.328125 -2.46875 L 4.183594 -2.46875 C 4.003906 -3.410156 3.234375 -4.050781 2.269531 -4.050781 C 1.105469 -4.050781 0.222656 -3.152344 0.222656 -1.976562 C 0.222656 -0.804688 1.105469 0.0898438 2.269531 0.0898438 Z M 2.269531 0.0898438 "/></g></g></g><g fill="#766761" fill-opacity="1"><g transform="translate(51.07774, 13.746772)"><g><path d="M 3.082031 0 L 4.015625 0 L 2.414062 -3.964844 L 1.601562 -3.964844 L 0.046875 0 L 0.957031 0 L 1.230469 -0.746094 L 2.804688 -0.746094 Z M 2.015625 -2.917969 L 2.535156 -1.496094 L 1.496094 -1.496094 Z M 2.015625 -2.917969 "/></g></g></g><g fill="#766761" fill-opacity="1"><g transform="translate(55.607612, 13.746772)"><g><path d="M 2.632812 0 L 3.589844 0 L 2.710938 -1.496094 C 3.152344 -1.710938 3.4375 -2.128906 3.4375 -2.648438 C 3.4375 -3.414062 2.84375 -3.964844 2.050781 -3.964844 L 0.453125 -3.964844 L 0.453125 0 L 1.308594 0 L 1.308594 -1.347656 L 1.855469 -1.347656 Z M 1.308594 -3.171875 L 1.992188 -3.171875 C 2.355469 -3.171875 2.566406 -2.949219 2.566406 -2.65625 C 2.566406 -2.355469 2.355469 -2.140625 1.992188 -2.140625 L 1.308594 -2.140625 Z M 1.308594 -3.171875 "/></g></g></g><g fill="#766761" fill-opacity="1"><g transform="translate(59.814746, 13.746772)"><g><path d="M 1.308594 -0.792969 L 1.308594 -1.609375 L 2.683594 -1.609375 L 2.683594 -2.382812 L 1.308594 -2.382812 L 1.308594 -3.171875 L 2.832031 -3.171875 L 2.832031 -3.964844 L 0.453125 -3.964844 L 0.453125 0 L 2.894531 0 L 2.894531 -0.792969 Z M 1.308594 -0.792969 "/></g></g></g><g fill="#766761" fill-opacity="1"><g transform="translate(63.444344, 13.746772)"><g/></g></g><g fill="#e17f26" fill-opacity="1"><g transform="translate(65.263766, 13.746772)"><g><path d="M 3.082031 0 L 4.015625 0 L 2.414062 -3.964844 L 1.601562 -3.964844 L 0.046875 0 L 0.957031 0 L 1.230469 -0.746094 L 2.804688 -0.746094 Z M 2.015625 -2.917969 L 2.535156 -1.496094 L 1.496094 -1.496094 Z M 2.015625 -2.917969 "/></g></g></g><g fill="#e17f26" fill-opacity="1"><g transform="translate(69.793639, 13.746772)"><g><path d="M 2.269531 0.0898438 C 3.25 0.0898438 4.019531 -0.566406 4.203125 -1.546875 L 3.335938 -1.546875 C 3.195312 -1.046875 2.792969 -0.730469 2.269531 -0.730469 C 1.597656 -0.730469 1.09375 -1.261719 1.09375 -1.976562 C 1.09375 -2.691406 1.597656 -3.226562 2.269531 -3.226562 C 2.769531 -3.226562 3.164062 -2.933594 3.328125 -2.46875 L 4.183594 -2.46875 C 4.003906 -3.410156 3.234375 -4.050781 2.269531 -4.050781 C 1.105469 -4.050781 0.222656 -3.152344 0.222656 -1.976562 C 0.222656 -0.804688 1.105469 0.0898438 2.269531 0.0898438 Z M 2.269531 0.0898438 "/></g></g></g><g fill="#e17f26" fill-opacity="1"><g transform="translate(74.623605, 13.746772)"><g><path d="M 3.082031 0 L 4.015625 0 L 2.414062 -3.964844 L 1.601562 -3.964844 L 0.046875 0 L 0.957031 0 L 1.230469 -0.746094 L 2.804688 -0.746094 Z M 2.015625 -2.917969 L 2.535156 -1.496094 L 1.496094 -1.496094 Z M 2.015625 -2.917969 "/></g></g></g><g fill="#e17f26" fill-opacity="1"><g transform="translate(79.153478, 13.746772)"><g><path d="M 1.949219 -3.964844 L 0.453125 -3.964844 L 0.453125 0 L 1.949219 0 C 3.113281 0 3.957031 -0.832031 3.957031 -1.980469 C 3.957031 -3.132812 3.113281 -3.964844 1.949219 -3.964844 Z M 1.929688 -0.792969 L 1.308594 -0.792969 L 1.308594 -3.164062 L 1.929688 -3.164062 C 2.609375 -3.164062 3.082031 -2.683594 3.082031 -1.980469 C 3.082031 -1.292969 2.609375 -0.792969 1.929688 -0.792969 Z M 1.929688 -0.792969 "/></g></g></g><g fill="#e17f26" fill-opacity="1"><g transform="translate(83.813582, 13.746772)"><g><path d="M 1.308594 -0.792969 L 1.308594 -1.609375 L 2.683594 -1.609375 L 2.683594 -2.382812 L 1.308594 -2.382812 L 1.308594 -3.171875 L 2.832031 -3.171875 L 2.832031 -3.964844 L 0.453125 -3.964844 L 0.453125 0 L 2.894531 0 L 2.894531 -0.792969 Z M 1.308594 -0.792969 "/></g></g></g><g fill="#e17f26" fill-opacity="1"><g transform="translate(87.443182, 13.746772)"><g><path d="M 5.304688 0 L 4.695312 -3.964844 L 3.832031 -3.964844 L 2.757812 -1.527344 L 1.683594 -3.964844 L 0.828125 -3.964844 L 0.203125 0 L 1.074219 0 L 1.464844 -2.582031 L 2.648438 -0.00390625 L 2.859375 -0.00390625 L 4.042969 -2.582031 L 4.433594 0 Z M 5.304688 0 "/></g></g></g><g fill="#e17f26" fill-opacity="1"><g transform="translate(93.428219, 13.746772)"><g><path d="M 3.753906 -3.964844 L 2.835938 -3.964844 L 1.917969 -2.371094 L 1.007812 -3.964844 L 0.0976562 -3.964844 L 1.476562 -1.601562 L 1.476562 0 L 2.355469 0 L 2.355469 -1.597656 Z M 3.753906 -3.964844 "/></g></g></g><g fill="#e17f26" fill-opacity="1"><g transform="translate(25.449908, 18.643682)"><g><path d="M 1.449219 0.0390625 C 2.039062 0.0390625 2.503906 -0.3125 2.644531 -0.878906 L 2.328125 -0.878906 C 2.195312 -0.496094 1.871094 -0.269531 1.449219 -0.269531 C 0.894531 -0.269531 0.488281 -0.671875 0.488281 -1.246094 C 0.488281 -1.820312 0.894531 -2.230469 1.449219 -2.230469 C 1.859375 -2.230469 2.183594 -2.015625 2.3125 -1.652344 L 2.636719 -1.652344 C 2.492188 -2.191406 2.027344 -2.535156 1.449219 -2.535156 C 0.707031 -2.535156 0.167969 -1.996094 0.167969 -1.246094 C 0.167969 -0.5 0.707031 0.0390625 1.449219 0.0390625 Z M 1.449219 0.0390625 "/></g></g></g><g fill="#e17f26" fill-opacity="1"><g transform="translate(28.288372, 18.643682)"><g><path d="M 1.125 0.0429688 C 1.648438 0.0429688 1.980469 -0.292969 1.980469 -0.8125 L 1.980469 -1.929688 L 1.679688 -1.929688 L 1.679688 -0.859375 C 1.679688 -0.484375 1.472656 -0.25 1.125 -0.25 C 0.785156 -0.25 0.574219 -0.480469 0.574219 -0.859375 L 0.574219 -1.929688 L 0.269531 -1.929688 L 0.269531 -0.8125 C 0.269531 -0.292969 0.605469 0.0429688 1.125 0.0429688 Z M 1.125 0.0429688 "/></g></g></g><g fill="#e17f26" fill-opacity="1"><g transform="translate(30.612702, 18.643682)"><g><path d="M 0.304688 0 L 0.605469 0 L 0.605469 -2.613281 L 0.304688 -2.613281 Z M 0.304688 0 "/></g></g></g><g fill="#e17f26" fill-opacity="1"><g transform="translate(31.594581, 18.643682)"><g><path d="M 1.101562 -0.277344 C 0.839844 -0.277344 0.695312 -0.421875 0.695312 -0.683594 L 0.695312 -1.652344 L 1.304688 -1.652344 L 1.304688 -1.929688 L 0.695312 -1.929688 L 0.695312 -2.335938 L 0.648438 -2.335938 L 0.0546875 -1.707031 L 0.0546875 -1.652344 L 0.394531 -1.652344 L 0.394531 -0.671875 C 0.394531 -0.253906 0.648438 0 1.0625 0 L 1.3125 0 L 1.3125 -0.277344 Z M 1.101562 -0.277344 "/></g></g></g><g fill="#e17f26" fill-opacity="1"><g transform="translate(33.076308, 18.643682)"><g><path d="M 0.292969 -2.261719 L 0.621094 -2.261719 L 0.621094 -2.605469 L 0.292969 -2.605469 Z M 0.304688 0 L 0.605469 0 L 0.605469 -1.929688 L 0.304688 -1.929688 Z M 0.304688 0 "/></g></g></g><g fill="#e17f26" fill-opacity="1"><g transform="translate(34.058186, 18.643682)"><g><path d="M 1.664062 -1.929688 L 1.023438 -0.394531 L 0.367188 -1.929688 L 0.0546875 -1.929688 L 0.886719 0 L 1.164062 0 L 1.976562 -1.929688 Z M 1.664062 -1.929688 "/></g></g></g><g fill="#e17f26" fill-opacity="1"><g transform="translate(36.168296, 18.643682)"><g><path d="M 1.949219 -1.929688 L 1.910156 -1.632812 C 1.730469 -1.84375 1.464844 -1.96875 1.148438 -1.96875 C 0.578125 -1.96875 0.148438 -1.539062 0.148438 -0.960938 C 0.148438 -0.390625 0.578125 0.0429688 1.148438 0.0429688 C 1.464844 0.0429688 1.726562 -0.0820312 1.90625 -0.289062 L 1.9375 0 L 2.1875 0 L 2.1875 -1.929688 Z M 1.171875 -0.25 C 0.765625 -0.25 0.460938 -0.558594 0.460938 -0.964844 C 0.460938 -1.367188 0.765625 -1.675781 1.171875 -1.675781 C 1.582031 -1.675781 1.878906 -1.371094 1.878906 -0.964844 C 1.878906 -0.554688 1.582031 -0.25 1.171875 -0.25 Z M 1.171875 -0.25 "/></g></g></g><g fill="#e17f26" fill-opacity="1"><g transform="translate(38.731841, 18.643682)"><g><path d="M 1.101562 -0.277344 C 0.839844 -0.277344 0.695312 -0.421875 0.695312 -0.683594 L 0.695312 -1.652344 L 1.304688 -1.652344 L 1.304688 -1.929688 L 0.695312 -1.929688 L 0.695312 -2.335938 L 0.648438 -2.335938 L 0.0546875 -1.707031 L 0.0546875 -1.652344 L 0.394531 -1.652344 L 0.394531 -0.671875 C 0.394531 -0.253906 0.648438 0 1.0625 0 L 1.3125 0 L 1.3125 -0.277344 Z M 1.101562 -0.277344 "/></g></g></g><g fill="#e17f26" fill-opacity="1"><g transform="translate(40.213568, 18.643682)"><g><path d="M 0.292969 -2.261719 L 0.621094 -2.261719 L 0.621094 -2.605469 L 0.292969 -2.605469 Z M 0.304688 0 L 0.605469 0 L 0.605469 -1.929688 L 0.304688 -1.929688 Z M 0.304688 0 "/></g></g></g><g fill="#e17f26" fill-opacity="1"><g transform="translate(41.195448, 18.643682)"><g><path d="M 1.269531 -1.96875 C 0.972656 -1.96875 0.726562 -1.839844 0.578125 -1.625 L 0.519531 -1.929688 L 0.304688 -1.929688 L 0.304688 0 L 0.605469 0 L 0.605469 -1.050781 C 0.605469 -1.410156 0.859375 -1.691406 1.191406 -1.691406 C 1.523438 -1.691406 1.710938 -1.472656 1.710938 -1.082031 L 1.710938 0 L 2.015625 0 L 2.015625 -1.152344 C 2.015625 -1.625 1.726562 -1.96875 1.269531 -1.96875 Z M 1.269531 -1.96875 "/></g></g></g><g fill="#e17f26" fill-opacity="1"><g transform="translate(43.555483, 18.643682)"><g><path d="M 1.894531 -1.929688 L 1.851562 -1.628906 C 1.675781 -1.839844 1.410156 -1.96875 1.101562 -1.96875 C 0.5625 -1.96875 0.152344 -1.550781 0.152344 -1.015625 C 0.152344 -0.476562 0.5625 -0.0625 1.101562 -0.0625 C 1.386719 -0.0625 1.632812 -0.167969 1.804688 -0.347656 L 1.804688 -0.230469 C 1.804688 0.199219 1.539062 0.453125 1.152344 0.453125 C 0.875 0.453125 0.632812 0.316406 0.546875 0.078125 L 0.242188 0.078125 C 0.347656 0.484375 0.683594 0.730469 1.152344 0.730469 C 1.742188 0.730469 2.101562 0.355469 2.101562 -0.269531 L 2.101562 -1.925781 Z M 1.132812 -0.351562 C 0.746094 -0.351562 0.460938 -0.636719 0.460938 -1.015625 C 0.460938 -1.394531 0.746094 -1.679688 1.132812 -1.679688 C 1.519531 -1.679688 1.800781 -1.394531 1.800781 -1.015625 C 1.800781 -0.632812 1.519531 -0.351562 1.132812 -0.351562 Z M 1.132812 -0.351562 "/></g></g></g><g fill="#e17f26" fill-opacity="1"><g transform="translate(46.02977, 18.643682)"><g/></g></g><g fill="#e17f26" fill-opacity="1"><g transform="translate(47.033071, 18.643682)"><g><path d="M 0.652344 -0.300781 L 0.652344 -1.140625 L 1.660156 -1.140625 L 1.660156 -1.429688 L 0.652344 -1.429688 L 0.652344 -2.199219 L 1.753906 -2.199219 L 1.753906 -2.5 L 0.339844 -2.5 L 0.339844 0 L 1.792969 0 L 1.792969 -0.300781 Z M 0.652344 -0.300781 "/></g></g></g><g fill="#e17f26" fill-opacity="1"><g transform="translate(49.075344, 18.643682)"><g><path d="M 1.808594 0 L 1.097656 -1.015625 L 1.753906 -1.929688 L 1.417969 -1.929688 L 0.917969 -1.214844 L 0.425781 -1.929688 L 0.0859375 -1.929688 L 0.730469 -1 L 0.0234375 0 L 0.359375 0 L 0.914062 -0.800781 L 1.46875 0 Z M 1.808594 0 "/></g></g></g><g fill="#e17f26" fill-opacity="1"><g transform="translate(50.974804, 18.643682)"><g><path d="M 1.152344 0.0429688 C 1.609375 0.0429688 1.976562 -0.230469 2.097656 -0.65625 L 1.789062 -0.65625 C 1.671875 -0.398438 1.4375 -0.25 1.152344 -0.25 C 0.761719 -0.25 0.460938 -0.5625 0.460938 -0.964844 C 0.460938 -1.363281 0.757812 -1.675781 1.152344 -1.675781 C 1.4375 -1.675781 1.679688 -1.523438 1.789062 -1.273438 L 2.09375 -1.273438 C 1.976562 -1.695312 1.613281 -1.96875 1.152344 -1.96875 C 0.582031 -1.96875 0.148438 -1.539062 0.148438 -0.964844 C 0.148438 -0.390625 0.582031 0.0429688 1.152344 0.0429688 Z M 1.152344 0.0429688 "/></g></g></g><g fill="#e17f26" fill-opacity="1"><g transform="translate(53.256292, 18.643682)"><g><path d="M 2.105469 -0.953125 C 2.105469 -1.519531 1.722656 -1.96875 1.136719 -1.96875 C 0.574219 -1.96875 0.152344 -1.535156 0.152344 -0.964844 C 0.152344 -0.390625 0.574219 0.0429688 1.136719 0.0429688 C 1.554688 0.0429688 1.894531 -0.1875 2.058594 -0.585938 L 1.734375 -0.585938 C 1.617188 -0.378906 1.402344 -0.253906 1.136719 -0.253906 C 0.769531 -0.253906 0.503906 -0.488281 0.457031 -0.847656 L 2.101562 -0.847656 C 2.101562 -0.882812 2.105469 -0.917969 2.105469 -0.953125 Z M 1.136719 -1.683594 C 1.476562 -1.683594 1.738281 -1.46875 1.804688 -1.125 L 0.464844 -1.125 C 0.523438 -1.460938 0.785156 -1.683594 1.136719 -1.683594 Z M 1.136719 -1.683594 "/></g></g></g><g fill="#e17f26" fill-opacity="1"><g transform="translate(55.580624, 18.643682)"><g><path d="M 0.304688 0 L 0.605469 0 L 0.605469 -2.613281 L 0.304688 -2.613281 Z M 0.304688 0 "/></g></g></g><g fill="#e17f26" fill-opacity="1"><g transform="translate(56.562503, 18.643682)"><g><path d="M 0.304688 0 L 0.605469 0 L 0.605469 -2.613281 L 0.304688 -2.613281 Z M 0.304688 0 "/></g></g></g><g fill="#e17f26" fill-opacity="1"><g transform="translate(57.544382, 18.643682)"><g><path d="M 2.105469 -0.953125 C 2.105469 -1.519531 1.722656 -1.96875 1.136719 -1.96875 C 0.574219 -1.96875 0.152344 -1.535156 0.152344 -0.964844 C 0.152344 -0.390625 0.574219 0.0429688 1.136719 0.0429688 C 1.554688 0.0429688 1.894531 -0.1875 2.058594 -0.585938 L 1.734375 -0.585938 C 1.617188 -0.378906 1.402344 -0.253906 1.136719 -0.253906 C 0.769531 -0.253906 0.503906 -0.488281 0.457031 -0.847656 L 2.101562 -0.847656 C 2.101562 -0.882812 2.105469 -0.917969 2.105469 -0.953125 Z M 1.136719 -1.683594 C 1.476562 -1.683594 1.738281 -1.46875 1.804688 -1.125 L 0.464844 -1.125 C 0.523438 -1.460938 0.785156 -1.683594 1.136719 -1.683594 Z M 1.136719 -1.683594 "/></g></g></g><g fill="#e17f26" fill-opacity="1"><g transform="translate(59.868713, 18.643682)"><g><path d="M 1.269531 -1.96875 C 0.972656 -1.96875 0.726562 -1.839844 0.578125 -1.625 L 0.519531 -1.929688 L 0.304688 -1.929688 L 0.304688 0 L 0.605469 0 L 0.605469 -1.050781 C 0.605469 -1.410156 0.859375 -1.691406 1.191406 -1.691406 C 1.523438 -1.691406 1.710938 -1.472656 1.710938 -1.082031 L 1.710938 0 L 2.015625 0 L 2.015625 -1.152344 C 2.015625 -1.625 1.726562 -1.96875 1.269531 -1.96875 Z M 1.269531 -1.96875 "/></g></g></g><g fill="#e17f26" fill-opacity="1"><g transform="translate(62.228748, 18.643682)"><g><path d="M 1.152344 0.0429688 C 1.609375 0.0429688 1.976562 -0.230469 2.097656 -0.65625 L 1.789062 -0.65625 C 1.671875 -0.398438 1.4375 -0.25 1.152344 -0.25 C 0.761719 -0.25 0.460938 -0.5625 0.460938 -0.964844 C 0.460938 -1.363281 0.757812 -1.675781 1.152344 -1.675781 C 1.4375 -1.675781 1.679688 -1.523438 1.789062 -1.273438 L 2.09375 -1.273438 C 1.976562 -1.695312 1.613281 -1.96875 1.152344 -1.96875 C 0.582031 -1.96875 0.148438 -1.539062 0.148438 -0.964844 C 0.148438 -0.390625 0.582031 0.0429688 1.152344 0.0429688 Z M 1.152344 0.0429688 "/></g></g></g><g fill="#e17f26" fill-opacity="1"><g transform="translate(64.510236, 18.643682)"><g><path d="M 2.105469 -0.953125 C 2.105469 -1.519531 1.722656 -1.96875 1.136719 -1.96875 C 0.574219 -1.96875 0.152344 -1.535156 0.152344 -0.964844 C 0.152344 -0.390625 0.574219 0.0429688 1.136719 0.0429688 C 1.554688 0.0429688 1.894531 -0.1875 2.058594 -0.585938 L 1.734375 -0.585938 C 1.617188 -0.378906 1.402344 -0.253906 1.136719 -0.253906 C 0.769531 -0.253906 0.503906 -0.488281 0.457031 -0.847656 L 2.101562 -0.847656 C 2.101562 -0.882812 2.105469 -0.917969 2.105469 -0.953125 Z M 1.136719 -1.683594 C 1.476562 -1.683594 1.738281 -1.46875 1.804688 -1.125 L 0.464844 -1.125 C 0.523438 -1.460938 0.785156 -1.683594 1.136719 -1.683594 Z M 1.136719 -1.683594 "/></g></g></g><g fill="#e17f26" fill-opacity="1"><g transform="translate(66.834568, 18.643682)"><g><path d="M 0.261719 0.476562 C 0.480469 0.414062 0.609375 0.261719 0.609375 -0.0234375 L 0.609375 -0.375 L 0.242188 -0.375 L 0.242188 0 L 0.445312 0 C 0.445312 0.15625 0.394531 0.261719 0.261719 0.308594 Z M 0.261719 0.476562 "/></g></g></g><g fill="#e17f26" fill-opacity="1"><g transform="translate(67.762892, 18.643682)"><g/></g></g><g fill="#e17f26" fill-opacity="1"><g transform="translate(68.766193, 18.643682)"><g><path d="M 1.351562 -1.238281 L 1.351562 -0.941406 L 2.347656 -0.941406 C 2.257812 -0.535156 1.894531 -0.265625 1.4375 -0.265625 C 0.875 -0.265625 0.488281 -0.667969 0.488281 -1.246094 C 0.488281 -1.820312 0.886719 -2.226562 1.4375 -2.226562 C 1.859375 -2.226562 2.21875 -1.988281 2.324219 -1.625 L 2.648438 -1.625 C 2.539062 -2.160156 2.03125 -2.535156 1.433594 -2.535156 C 0.703125 -2.535156 0.171875 -1.988281 0.171875 -1.246094 C 0.171875 -0.503906 0.703125 0.0429688 1.4375 0.0429688 C 2.160156 0.0429688 2.675781 -0.484375 2.6875 -1.238281 Z M 1.351562 -1.238281 "/></g></g></g><g fill="#e17f26" fill-opacity="1"><g transform="translate(71.683203, 18.643682)"><g><path d="M 1.1875 -1.9375 C 0.90625 -1.9375 0.707031 -1.832031 0.566406 -1.632812 L 0.519531 -1.929688 L 0.304688 -1.929688 L 0.304688 0 L 0.605469 0 L 0.605469 -1.046875 C 0.605469 -1.421875 0.808594 -1.648438 1.160156 -1.648438 L 1.355469 -1.648438 L 1.355469 -1.9375 Z M 1.1875 -1.9375 "/></g></g></g><g fill="#e17f26" fill-opacity="1"><g transform="translate(73.129228, 18.643682)"><g><path d="M 1.175781 0.0429688 C 1.757812 0.0429688 2.195312 -0.386719 2.195312 -0.964844 C 2.195312 -1.539062 1.757812 -1.96875 1.175781 -1.96875 C 0.589844 -1.96875 0.148438 -1.542969 0.148438 -0.964844 C 0.148438 -0.386719 0.589844 0.0429688 1.175781 0.0429688 Z M 1.175781 -0.25 C 0.761719 -0.25 0.460938 -0.550781 0.460938 -0.964844 C 0.460938 -1.375 0.761719 -1.675781 1.175781 -1.675781 C 1.585938 -1.675781 1.886719 -1.375 1.886719 -0.960938 C 1.886719 -0.550781 1.585938 -0.25 1.175781 -0.25 Z M 1.175781 -0.25 "/></g></g></g><g fill="#e17f26" fill-opacity="1"><g transform="translate(75.549957, 18.643682)"><g><path d="M 2.652344 -1.929688 L 2.164062 -0.492188 L 1.566406 -1.894531 L 1.457031 -1.894531 L 0.867188 -0.507812 L 0.386719 -1.929688 L 0.0703125 -1.929688 L 0.722656 0 L 0.96875 0 L 1.515625 -1.3125 L 2.058594 0 L 2.304688 0 L 2.960938 -1.929688 Z M 2.652344 -1.929688 "/></g></g></g><g fill="#e17f26" fill-opacity="1"><g transform="translate(78.649052, 18.643682)"><g><path d="M 0.292969 -2.261719 L 0.621094 -2.261719 L 0.621094 -2.605469 L 0.292969 -2.605469 Z M 0.304688 0 L 0.605469 0 L 0.605469 -1.929688 L 0.304688 -1.929688 Z M 0.304688 0 "/></g></g></g><g fill="#e17f26" fill-opacity="1"><g transform="translate(79.630929, 18.643682)"><g><path d="M 1.269531 -1.96875 C 0.972656 -1.96875 0.726562 -1.839844 0.578125 -1.625 L 0.519531 -1.929688 L 0.304688 -1.929688 L 0.304688 0 L 0.605469 0 L 0.605469 -1.050781 C 0.605469 -1.410156 0.859375 -1.691406 1.191406 -1.691406 C 1.523438 -1.691406 1.710938 -1.472656 1.710938 -1.082031 L 1.710938 0 L 2.015625 0 L 2.015625 -1.152344 C 2.015625 -1.625 1.726562 -1.96875 1.269531 -1.96875 Z M 1.269531 -1.96875 "/></g></g></g><g fill="#e17f26" fill-opacity="1"><g transform="translate(81.99096, 18.643682)"><g><path d="M 1.894531 -1.929688 L 1.851562 -1.628906 C 1.675781 -1.839844 1.410156 -1.96875 1.101562 -1.96875 C 0.5625 -1.96875 0.152344 -1.550781 0.152344 -1.015625 C 0.152344 -0.476562 0.5625 -0.0625 1.101562 -0.0625 C 1.386719 -0.0625 1.632812 -0.167969 1.804688 -0.347656 L 1.804688 -0.230469 C 1.804688 0.199219 1.539062 0.453125 1.152344 0.453125 C 0.875 0.453125 0.632812 0.316406 0.546875 0.078125 L 0.242188 0.078125 C 0.347656 0.484375 0.683594 0.730469 1.152344 0.730469 C 1.742188 0.730469 2.101562 0.355469 2.101562 -0.269531 L 2.101562 -1.925781 Z M 1.132812 -0.351562 C 0.746094 -0.351562 0.460938 -0.636719 0.460938 -1.015625 C 0.460938 -1.394531 0.746094 -1.679688 1.132812 -1.679688 C 1.519531 -1.679688 1.800781 -1.394531 1.800781 -1.015625 C 1.800781 -0.632812 1.519531 -0.351562 1.132812 -0.351562 Z M 1.132812 -0.351562 "/></g></g></g><g fill="#e17f26" fill-opacity="1"><g transform="translate(84.465248, 18.643682)"><g/></g></g><g fill="#e17f26" fill-opacity="1"><g transform="translate(85.468549, 18.643682)"><g><path d="M 1.742188 -2.199219 L 1.742188 -2.5 L 0.339844 -2.5 L 0.339844 0 L 0.652344 0 L 0.652344 -1.085938 L 1.648438 -1.085938 L 1.648438 -1.375 L 0.652344 -1.375 L 0.652344 -2.199219 Z M 1.742188 -2.199219 "/></g></g></g><g fill="#e17f26" fill-opacity="1"><g transform="translate(87.403709, 18.643682)"><g><path d="M 1.125 0.0429688 C 1.648438 0.0429688 1.980469 -0.292969 1.980469 -0.8125 L 1.980469 -1.929688 L 1.679688 -1.929688 L 1.679688 -0.859375 C 1.679688 -0.484375 1.472656 -0.25 1.125 -0.25 C 0.785156 -0.25 0.574219 -0.480469 0.574219 -0.859375 L 0.574219 -1.929688 L 0.269531 -1.929688 L 0.269531 -0.8125 C 0.269531 -0.292969 0.605469 0.0429688 1.125 0.0429688 Z M 1.125 0.0429688 "/></g></g></g><g fill="#e17f26" fill-opacity="1"><g transform="translate(89.728037, 18.643682)"><g><path d="M 1.101562 -0.277344 C 0.839844 -0.277344 0.695312 -0.421875 0.695312 -0.683594 L 0.695312 -1.652344 L 1.304688 -1.652344 L 1.304688 -1.929688 L 0.695312 -1.929688 L 0.695312 -2.335938 L 0.648438 -2.335938 L 0.0546875 -1.707031 L 0.0546875 -1.652344 L 0.394531 -1.652344 L 0.394531 -0.671875 C 0.394531 -0.253906 0.648438 0 1.0625 0 L 1.3125 0 L 1.3125 -0.277344 Z M 1.101562 -0.277344 "/></g></g></g><g fill="#e17f26" fill-opacity="1"><g transform="translate(91.209762, 18.643682)"><g><path d="M 1.125 0.0429688 C 1.648438 0.0429688 1.980469 -0.292969 1.980469 -0.8125 L 1.980469 -1.929688 L 1.679688 -1.929688 L 1.679688 -0.859375 C 1.679688 -0.484375 1.472656 -0.25 1.125 -0.25 C 0.785156 -0.25 0.574219 -0.480469 0.574219 -0.859375 L 0.574219 -1.929688 L 0.269531 -1.929688 L 0.269531 -0.8125 C 0.269531 -0.292969 0.605469 0.0429688 1.125 0.0429688 Z M 1.125 0.0429688 "/></g></g></g><g fill="#e17f26" fill-opacity="1"><g transform="translate(93.534091, 18.643682)"><g><path d="M 1.1875 -1.9375 C 0.90625 -1.9375 0.707031 -1.832031 0.566406 -1.632812 L 0.519531 -1.929688 L 0.304688 -1.929688 L 0.304688 0 L 0.605469 0 L 0.605469 -1.046875 C 0.605469 -1.421875 0.808594 -1.648438 1.160156 -1.648438 L 1.355469 -1.648438 L 1.355469 -1.9375 Z M 1.1875 -1.9375 "/></g></g></g><g fill="#e17f26" fill-opacity="1"><g transform="translate(94.980112, 18.643682)"><g><path d="M 2.105469 -0.953125 C 2.105469 -1.519531 1.722656 -1.96875 1.136719 -1.96875 C 0.574219 -1.96875 0.152344 -1.535156 0.152344 -0.964844 C 0.152344 -0.390625 0.574219 0.0429688 1.136719 0.0429688 C 1.554688 0.0429688 1.894531 -0.1875 2.058594 -0.585938 L 1.734375 -0.585938 C 1.617188 -0.378906 1.402344 -0.253906 1.136719 -0.253906 C 0.769531 -0.253906 0.503906 -0.488281 0.457031 -0.847656 L 2.101562 -0.847656 C 2.101562 -0.882812 2.105469 -0.917969 2.105469 -0.953125 Z M 1.136719 -1.683594 C 1.476562 -1.683594 1.738281 -1.46875 1.804688 -1.125 L 0.464844 -1.125 C 0.523438 -1.460938 0.785156 -1.683594 1.136719 -1.683594 Z M 1.136719 -1.683594 "/></g></g></g><g fill="#e17f26" fill-opacity="1"><g transform="translate(97.30444, 18.643682)"><g><path d="M 0.914062 0.0429688 C 1.371094 0.0429688 1.679688 -0.1875 1.679688 -0.550781 C 1.679688 -1.019531 1.285156 -1.085938 0.953125 -1.140625 C 0.695312 -1.179688 0.476562 -1.21875 0.476562 -1.421875 C 0.476562 -1.589844 0.640625 -1.695312 0.898438 -1.695312 C 1.171875 -1.695312 1.335938 -1.582031 1.347656 -1.371094 L 1.632812 -1.371094 C 1.621094 -1.734375 1.34375 -1.96875 0.90625 -1.96875 C 0.472656 -1.96875 0.179688 -1.742188 0.179688 -1.410156 C 0.179688 -0.976562 0.550781 -0.90625 0.878906 -0.851562 C 1.140625 -0.808594 1.378906 -0.765625 1.378906 -0.535156 C 1.378906 -0.351562 1.1875 -0.234375 0.925781 -0.234375 C 0.652344 -0.234375 0.457031 -0.359375 0.441406 -0.589844 L 0.144531 -0.589844 C 0.160156 -0.199219 0.457031 0.0429688 0.914062 0.0429688 Z M 0.914062 0.0429688 "/></g></g></g></svg>